<svg xmlns="http://www.w3.org/2000/svg" xmlns:xlink="http://www.w3.org/1999/xlink" width="41.644" height="40.101" viewBox="0 0 41.644 40.101"><defs><style>.a{fill:none;}.b{clip-path:url(#a);}.c{fill:#fff;stroke:#515c6f;stroke-width:0.1px;}</style><clipPath id="a"><rect class="a" width="41.644" height="40.101"/></clipPath></defs><g class="b"><path class="c" d="M112.944,84.988H83.374l-1.7-4a1.4,1.4,0,0,0-.967-.814l-5.486-1.291a1.4,1.4,0,1,0-.641,2.723l4.8,1.129,12.278,28.862a4.625,4.625,0,1,0,8.285.465h5.037a4.626,4.626,0,1,0,4.258-2.819L93.7,109.26l-1.916-4.5h21.16a1.4,1.4,0,0,0,1.4-1.4V86.386A1.4,1.4,0,0,0,112.944,84.988Zm-3.71,27.05a1.828,1.828,0,1,1-1.828,1.828A1.828,1.828,0,0,1,109.234,112.038Zm-13.549,0a1.828,1.828,0,1,1-1.828,1.828A1.828,1.828,0,0,1,95.686,112.038Zm15.86-18.564h-9.271a1.4,1.4,0,0,0,0,2.8h9.271v5.688H90.594l-6.03-14.175h26.982Z" transform="translate(-73.447 -78.79)"/></g></svg>